<?xml version="1.0" encoding="UTF-8"?>
<svg version="1.1" viewBox="0 0 1460 952" width="1280" height="1280" xmlns="http://www.w3.org/2000/svg">
<path transform="translate(0)" d="m0 0h1460v952h-1460z" fill="#FDFEFD"/>
<path transform="translate(34,259)" d="m0 0 97 1 17 3 13 5 9 5 11 9 7 10 4 9 3 8 2 15v15l-2 14-5 13-4 8-8 10-9 8-11 7-11 5-13 4-22 3h-32v80l-3 1h-46v-232z" fill="#030102"/>
<path transform="translate(752,259)" d="m0 0h125l2 1v39l-4 1h-79v50l1 4 75 1v40h-76v56l87 1 1 3v35l-4 2h-115l-18-1v-231z" fill="#030102"/>
<path transform="translate(972,322)" d="m0 0h25l16 3 16 8 8 7 6 7 5 10 4 13 1 14 1 76v30l-3 2h-22l-21-1v-23l-4 4-7 9-11 8-12 5-12 2-16-1-15-5-11-8-8-9-5-13v-27l3-10 6-11 8-8 12-7 17-5 35-5 18-3 2-1-1-11-5-9-9-6-4-1h-24l-14 3-13 5-13 7h-3v-30l2-7 13-5 21-5z" fill="#030102"/>
<path transform="translate(623,322)" d="m0 0h23l18 4 17 9 10 9 9 14 4 9 3 11 2 23v16l-1 5h-54l-53 1-1 3 3 12 6 10 7 6 11 5 7 1h26l14-3 13-5 6-3h2l-1 34-6 4-16 5-18 3-9 1-23-1-20-4-16-8-11-9-11-13-6-13-4-15-2-24 3-24 6-17 6-11 9-11 10-9 13-8 13-5z" fill="#030102"/>
<path transform="translate(1308,322)" d="m0 0h21l15 3 12 5 10 6 9 8 9 14 4 10 3 10 1 8 1 26-1 9-1 1h-101l-5 1v9l4 10 6 8 9 6 7 3 6 1h28l16-4 12-5 6-2-1 34-6 4-15 5-28 4-23-1-20-4-16-8-11-9-10-12-7-14-3-12-1-5-1-14v-14l3-21 6-16 9-14 9-10 12-9 14-7 12-3z" fill="#030102"/>
<path transform="translate(229,326)" d="m0 0h45l1 1 1 104 2 8 4 9 5 6 9 4h16l10-4 8-7 5-10 2-10 1-101h42l3 1 1 33v131l-3 1h-23l-20-1-1-1v-22l-3 1-4 6-9 9-11 7-12 4-15 1-14-2-14-5-9-7-8-9-6-13-3-15-1-8v-109z" fill="#030102"/>
<path transform="translate(1151,322)" d="m0 0h20l22 3 11 3 1 12v24l-5-1-17-6-8-1h-21l-9 3-6 4-2 3v7l3 6 10 7 30 11 16 8 10 9 5 8 3 12v16l-3 12-6 10-5 5-9 7-15 7-14 3-14 2-24-1-23-4-10-4-1-8v-29l5 1 14 6 18 5 6 1h12l15-4 6-4 2-5v-8l-5-6-9-5-32-12-11-6-11-9v-2h-2l-7-14v-24l3-10 6-10 8-8 11-6 13-5z" fill="#030102"/>
<path transform="translate(509,324)" d="m0 0h26v44l-7-2-4-1h-17l-10 4-8 7-4 5-5 14-2 11v84l-4 2h-30l-13-1-1-4v-160l1-1h46l1 1v28h3l1-6 5-9 5-6 14-9z" fill="#030102"/>
<path transform="translate(83,296)" d="m0 0 30 1 12 3 10 6 7 8 4 11 1 6v9l-4 14-6 8-8 6-13 4-8 1h-27l-2-4v-64l1-7z" fill="#FCFDFC"/>
<path transform="translate(1e3 412)" d="m0 0 5 1v16l-2 11-6 9-7 7-8 4-4 1h-15l-9-3-6-7-3-9 1-9 3-6 7-6 9-4z" fill="#F7F9F8"/>
<path transform="translate(1316,354)" d="m0 0 16 2 9 6 6 10 2 11v7l-1 2h-64v-7l5-13 11-12 10-5z" fill="#FBFCFB"/>
<path transform="translate(626,355)" d="m0 0h18l7 3 8 7 5 10 1 15-1 2h-64v-7l5-12 6-8 8-7z" fill="#FCFDFC"/>
<path transform="translate(339,324)" d="m0 0h45l3 3v143l-1 21-5 1 3-1-1-131v-33l-45-1v101l-3 12-2 2 2-10 1-105z" fill="#98A1A0"/>
<path transform="translate(229,324)" d="m0 0h46l2 3 1 98 3 16 5 9 5 4 4 2 6 1h10l7-1-2 2-4 1h-16l-10-5-7-9-3-8-1-6-1-104-45-1v111l3 19 5 13 6 9 9 8 5 4-4-1-9-6v-2l-3-1-6-10-5-12-3-14-1-11v-107z" fill="#98A1A0"/>
<path transform="translate(1341,324)" d="m0 0 7 1 12 5 12 9 7 7 7 11 5 12 4 18 1 9v12l-1 13-4 3-103 1v8l4 10 4 6 7 5 10 4 12 1h26v1l-6 1h-28l-9-2-11-6-7-8-5-9-1-4v-9l6-2h101l1-16-1-19-2-11-4-13-5-9-8-11-10-8-15-7-6-2z" fill="#98A1A0"/>
<path transform="translate(688,341)" d="m0 0 4 2 9 12 5 12 2 5 3 17v32l-2 2-6 1h-100l2 13 7 12 11 7 5 2 7 1 25 1v1h-26l-10-2-11-6-7-8-5-10-2-11 2-2 62-1 45 1v-21l-2-23-5-16-6-11-7-9z" fill="#98A1A0"/>
<path transform="translate(796,395)" d="m0 0h76v1h-74l1 54h85l2 2v34l-2 6-4-1 3-1v-37l-85-1-2-1-1-4v-47z" fill="#98A1A0"/>
<path transform="translate(1018,327)" d="m0 0 5 1 8 4 12 11 4 5 5 12 3 14 1 9v103l-1 6-4-1 2-1v-31l-1-75-1-14-6-18-6-9-8-8-13-7z" fill="#98A1A0"/>
<path transform="translate(432,324)" d="m0 0h36l11 1 1 1v26l1 3h-3l-1-28h-46v163l13 1 27 1v1h-38l-4-1v-166z" fill="#98A1A0"/>
<path transform="translate(1141,360)" d="m0 0 2 1-3 4v9l4 6 11 6 20 7 18 8 14 11 6 9 3 10v23l-4 11-6 9-11 9-4 1 4-4 7-5 7-11 3-9 1-5v-16l-3-12-7-10-7-6-16-8-32-12-9-7-3-6v-7z" fill="#98A1A0"/>
<path transform="translate(796,300)" d="m0 0h21v1h-19v53h75l2 5-1 35-2 1v-40h-75l-2-5v-41z" fill="#98A1A0"/>
<path transform="translate(495,369)" d="m0 0 2 1-7 7-7 14-2 9-1 85-1 7h-5l3-2v-84l4-18 4-8z" fill="#98A1A0"/>
<path transform="translate(169,272)" d="m0 0 5 2 12 11 8 14 4 12 2 12v16l-3 14-5 14-7 11-9 10-12 9-2-1 13-10 8-9 5-9 5-12 2-8 1-9v-15l-2-15-5-14-8-12-12-10z" fill="#98A1A0"/>
<path transform="translate(1256,348)" d="m0 0h2l-2 4-9 14-6 16-3 21v14l1 14 3 14 5 12 8 11 7 8 10 7 14 7-3 1-14-7-9-7-7-7-6-8-7-15-4-14-1-10v-21l2-15 7-21 8-13z" fill="#98A1A0"/>
<path transform="translate(83,296)" d="m0 0 30 1v1l-30 1-1 73h26v1h-27l-2-4v-64l1-7z" fill="#98A1A0"/>
<path transform="translate(80,411)" d="m0 0h30v1h-28v73l-1 7-4-1h3l-1-12v-63z" fill="#98A1A0"/>
<path transform="translate(1149,429)" d="m0 0 5 1 9 5 6 7v8l-3 6-6 4-15 4h-12l-21-5-15-6-3-3 6 2 17 6 12 2h21l9-2 6-4 2-6-1-6-4-5-13-7z" fill="#98A1A0"/>
<path transform="translate(1098,345)" d="m0 0v3l-5 11-1 5v24l6 12v2h2l5 5 9 7 20 9 15 5v1l-7-1-19-7-12-6-9-7-7-8-4-8-2-7v-21l4-12z" fill="#98A1A0"/>
<path transform="translate(1298,362)" d="m0 0v3l-7 10-6 16 63-1v2h-64v-7l5-13z" fill="#98A1A0"/>
<path transform="translate(614,362)" d="m0 0v3l-7 10-6 16h63v1h-64v-7l5-12 6-8z" fill="#98A1A0"/>
<path transform="translate(1198,326)" d="m0 0 7 1 3 3-1 35-4 1-6-3 3-1 5 2-1-11v-25l-6-1z" fill="#98A1A0"/>
<path transform="translate(136,308)" d="m0 0 5 5 4 9 2 9v9l-4 14-3 3 1-5 2-6v-22l-4-10-3-4z" fill="#98A1A0"/>
<path transform="translate(964,419)" d="m0 0 3 1-10 6-3 5-1 4v12l5 8 5 4-5-1-6-7-3-9 1-9 3-6 7-6z" fill="#98A1A0"/>
<path transform="translate(564,461)" d="m0 0 5 5 9 10 10 7 3 3-6-2-9-7-7-7-5-7z" fill="#98A1A0"/>
<path transform="translate(1339,362)" d="m0 0h2l6 10 2 11v7l-2-1-2-13-4-10z" fill="#98A1A0"/>
<path transform="translate(657,364)" d="m0 0 4 4 3 7 1 15-2-3-3-15-3-6z" fill="#98A1A0"/>
<path transform="translate(912,473)" d="m0 0 5 5 9 8 3 3-6-2-10-10z" fill="#98A1A0"/>
</svg>
